<svg xmlns="http://www.w3.org/2000/svg" viewBox="0 0 638.859 641.65">
  <defs>
    <style>
      .cls-1 {
        opacity: 0.134;
      }

      .cls-2 {
        fill: #ffc660;
      }
    </style>
  </defs>
  <g id="XMLID_2_" class="cls-1">
    <g id="XMLID_3_">
      <g id="XMLID_5_">
        <path id="XMLID_375_" class="cls-2" d="M1097.531,1058v37.185l-32.23-18.564Z" transform="translate(-458.671 -455.528)"/>
        <path id="XMLID_374_" class="cls-2" d="M1097.676,986.6v36.217l-31.376-18.108Z" transform="translate(-459.102 -424.786)"/>
        <path id="XMLID_373_" class="cls-2" d="M1095.885,1112.333H1062.8V1093.2Z" transform="translate(-457.595 -470.684)"/>
        <path id="XMLID_372_" class="cls-2" d="M1098.183,916.7v33.939l-29.383-16.97Z" transform="translate(-460.178 -394.691)"/>
        <path id="XMLID_371_" class="cls-2" d="M1098.432,846.1v32.06l-27.732-16Z" transform="translate(-460.996 -364.293)"/>
        <path id="XMLID_370_" class="cls-2" d="M1095.246,1040.85,1063.3,1059.3v-36.9Z" transform="translate(-457.81 -440.2)"/>
        <path id="XMLID_369_" class="cls-2" d="M1094.879,968.953,1064.3,986.605V951.3Z" transform="translate(-458.241 -409.588)"/>
        <path id="XMLID_368_" class="cls-2" d="M1098.857,704.5v28.472L1074.2,718.736Z" transform="translate(-462.503 -303.327)"/>
        <path id="XMLID_367_" class="cls-2" d="M1099.364,634.6v26.194L1076.7,647.7Z" transform="translate(-463.58 -273.231)"/>
        <path id="XMLID_366_" class="cls-2" d="M1094.171,897.485,1065.3,914.112V880.8Z" transform="translate(-458.671 -379.234)"/>
        <path id="XMLID_365_" class="cls-2" d="M1099.656,564.1v24.2L1078.7,576.229Z" transform="translate(-464.441 -242.877)"/>
        <path id="XMLID_364_" class="cls-2" d="M1099.9,493.6v22.265L1080.6,504.7Z" transform="translate(-465.259 -212.522)"/>
        <path id="XMLID_363_" class="cls-2" d="M1093.462,826.017l-27.162,15.66V810.3Z" transform="translate(-459.102 -348.88)"/>
        <path id="XMLID_362_" class="cls-2" d="M1099.98,422.5v20.671L1082.1,432.807Z" transform="translate(-465.905 -181.91)"/>
        <path id="XMLID_361_" class="cls-2" d="M1092.469,754.921,1067.3,769.5V740.4Z" transform="translate(-459.532 -318.784)"/>
        <path id="XMLID_360_" class="cls-2" d="M1092.1,683.024l-23.8,13.724V669.3Z" transform="translate(-459.963 -288.171)"/>
        <path id="XMLID_359_" class="cls-2" d="M1101.161,140.4v12.869L1090,146.835Z" transform="translate(-469.306 -60.45)"/>
        <path id="XMLID_358_" class="cls-2" d="M1089.65,468.949,1071.2,479.6V458.3Z" transform="translate(-461.212 -197.324)"/>
        <path id="XMLID_357_" class="cls-2" d="M1089.226,397.051,1072.2,406.9V387.2Z" transform="translate(-461.642 -166.711)"/>
        <path id="XMLID_356_" class="cls-2" d="M1088.575,325.583,1073.2,334.41V316.7Z" transform="translate(-462.073 -136.357)"/>
        <path id="XMLID_355_" class="cls-2" d="M1087.867,254.115l-13.667,7.858V246.2Z" transform="translate(-462.503 -106.003)"/>
        <path id="XMLID_354_" class="cls-2" d="M1085.742,39.654l-8.542,4.954V34.7Z" transform="translate(-463.795 -14.94)"/>
        <path id="XMLID_353_" class="cls-2" d="M1034.885,1093.2v19.133H1001.8Z" transform="translate(-431.331 -470.684)"/>
        <path id="XMLID_352_" class="cls-2" d="M1035.2,1022.4v36.9l-32-18.45Z" transform="translate(-431.934 -440.2)"/>
        <path id="XMLID_351_" class="cls-2" d="M1035.494,951.9v34.964L1005.2,969.382Z" transform="translate(-432.795 -409.846)"/>
        <path id="XMLID_350_" class="cls-2" d="M1033.031,1076.621l-32.231,18.564V1058Z" transform="translate(-430.9 -455.528)"/>
        <path id="XMLID_349_" class="cls-2" d="M1032.676,1004.708l-31.376,18.108V986.6Z" transform="translate(-431.116 -424.786)"/>
        <path id="XMLID_348_" class="cls-2" d="M1036.618,669.9v27.105L1013.1,683.453Z" transform="translate(-436.196 -288.43)"/>
        <path id="XMLID_347_" class="cls-2" d="M1031.683,933.669l-29.383,16.97V916.7Z" transform="translate(-431.546 -394.691)"/>
        <path id="XMLID_346_" class="cls-2" d="M1036.694,598.8v25.511L1014.6,611.555Z" transform="translate(-436.842 -257.817)"/>
        <path id="XMLID_345_" class="cls-2" d="M1036.986,528.3v23.575L1016.6,540.087Z" transform="translate(-437.703 -227.463)"/>
        <path id="XMLID_344_" class="cls-2" d="M1030.932,862.158l-27.732,16V846.1Z" transform="translate(-431.934 -364.293)"/>
        <path id="XMLID_343_" class="cls-2" d="M1037.8,387.8v19.361L1021,397.48Z" transform="translate(-439.598 -166.97)"/>
        <path id="XMLID_342_" class="cls-2" d="M1030.565,790.3,1004.2,805.451V775.1Z" transform="translate(-432.364 -333.724)"/>
        <path id="XMLID_341_" class="cls-2" d="M1029.857,718.736,1005.2,732.972V704.5Z" transform="translate(-432.795 -303.327)"/>
        <path id="XMLID_340_" class="cls-2" d="M1038.674,176.3v13.5L1027,183.019Z" transform="translate(-442.181 -75.907)"/>
        <path id="XMLID_339_" class="cls-2" d="M1038.965,105.8v11.5L1029,111.551Z" transform="translate(-443.042 -45.553)"/>
        <path id="XMLID_338_" class="cls-2" d="M1027.789,504.275,1008.2,515.607V493Z" transform="translate(-434.086 -212.264)"/>
        <path id="XMLID_337_" class="cls-2" d="M1026.087,361.768l-15.887,9.168V352.6Z" transform="translate(-434.948 -151.814)"/>
        <path id="XMLID_336_" class="cls-2" d="M972.43,1058v37.185l-32.23-18.564Z" transform="translate(-404.809 -455.528)"/>
        <path id="XMLID_335_" class="cls-2" d="M972.576,986.6v36.217L941.2,1004.708Z" transform="translate(-405.239 -424.786)"/>
        <path id="XMLID_334_" class="cls-2" d="M970.785,1112.333H937.7V1093.2Z" transform="translate(-403.732 -470.684)"/>
        <path id="XMLID_333_" class="cls-2" d="M973.083,916.7v33.939L943.7,933.669Z" transform="translate(-406.316 -394.691)"/>
        <path id="XMLID_332_" class="cls-2" d="M973.332,846.1v32.06l-27.732-16Z" transform="translate(-407.134 -364.293)"/>
        <path id="XMLID_331_" class="cls-2" d="M970.146,1040.85,938.2,1059.3v-36.9Z" transform="translate(-403.948 -440.2)"/>
        <path id="XMLID_330_" class="cls-2" d="M973.68,775.6v30.067L947.6,790.633Z" transform="translate(-407.995 -333.939)"/>
        <path id="XMLID_329_" class="cls-2" d="M969.779,968.953,939.2,986.605V951.3Z" transform="translate(-404.378 -409.588)"/>
        <path id="XMLID_328_" class="cls-2" d="M973.757,704.5v28.472L949.1,718.736Z" transform="translate(-408.641 -303.327)"/>
        <path id="XMLID_327_" class="cls-2" d="M974.264,634.6v26.194L951.6,647.7Z" transform="translate(-409.717 -273.231)"/>
        <path id="XMLID_326_" class="cls-2" d="M969.071,897.485,940.2,914.112V880.8Z" transform="translate(-404.809 -379.234)"/>
        <path id="XMLID_325_" class="cls-2" d="M974.512,564.1v24.2L953.5,576.229Z" transform="translate(-410.535 -242.877)"/>
        <path id="XMLID_324_" class="cls-2" d="M974.8,493.6v22.265L955.5,504.7Z" transform="translate(-411.396 -212.522)"/>
        <path id="XMLID_323_" class="cls-2" d="M968.362,826.017,941.2,841.676V810.3Z" transform="translate(-405.239 -348.88)"/>
        <path id="XMLID_322_" class="cls-2" d="M974.88,422.5v20.671L957,432.807Z" transform="translate(-412.042 -181.91)"/>
        <path id="XMLID_321_" class="cls-2" d="M975.679,282v16.457l-14.179-8.2Z" transform="translate(-413.98 -121.417)"/>
        <path id="XMLID_320_" class="cls-2" d="M967.369,754.921,942.2,769.5V740.4Z" transform="translate(-405.67 -318.784)"/>
        <path id="XMLID_319_" class="cls-2" d="M975.971,211.5v14.464L963.5,218.732Z" transform="translate(-414.841 -91.063)"/>
        <path id="XMLID_318_" class="cls-2" d="M976.568,70.5V81.092L967.4,75.8Z" transform="translate(-416.52 -30.354)"/>
        <path id="XMLID_317_" class="cls-2" d="M966.294,611.555,944.2,624.311V598.8Z" transform="translate(-406.531 -257.817)"/>
        <path id="XMLID_316_" class="cls-2" d="M976.86,0V8.6L969.4,4.328Z" transform="translate(-417.381)"/>
        <path id="XMLID_315_" class="cls-2" d="M964.55,468.949,946.1,479.6V458.3Z" transform="translate(-407.349 -197.324)"/>
        <path id="XMLID_314_" class="cls-2" d="M963.475,325.583,948.1,334.41V316.7Z" transform="translate(-408.21 -136.357)"/>
        <path id="XMLID_313_" class="cls-2" d="M962.766,254.115,949.1,261.974V246.2Z" transform="translate(-408.641 -106.003)"/>
        <path id="XMLID_312_" class="cls-2" d="M909.785,1093.2v19.133H876.7Z" transform="translate(-377.468 -470.684)"/>
        <path id="XMLID_311_" class="cls-2" d="M910.146,1022.4v36.9L878.2,1040.85Z" transform="translate(-378.114 -440.2)"/>
        <path id="XMLID_310_" class="cls-2" d="M910.394,951.9v34.964L880.1,969.382Z" transform="translate(-378.932 -409.846)"/>
        <path id="XMLID_309_" class="cls-2" d="M910.471,880.8v33.312L881.6,897.485Z" transform="translate(-379.578 -379.234)"/>
        <path id="XMLID_308_" class="cls-2" d="M907.93,1076.621l-32.23,18.564V1058Z" transform="translate(-377.038 -455.528)"/>
        <path id="XMLID_307_" class="cls-2" d="M910.762,810.3v31.376L883.6,826.017Z" transform="translate(-380.439 -348.88)"/>
        <path id="XMLID_306_" class="cls-2" d="M907.576,1004.708,876.2,1022.817V986.6Z" transform="translate(-377.253 -424.786)"/>
        <path id="XMLID_305_" class="cls-2" d="M911.518,669.9v27.105L888,683.453Z" transform="translate(-382.334 -288.43)"/>
        <path id="XMLID_304_" class="cls-2" d="M906.583,933.669,877.2,950.639V916.7Z" transform="translate(-377.684 -394.691)"/>
        <path id="XMLID_303_" class="cls-2" d="M911.886,528.3v23.575L891.5,540.087Z" transform="translate(-383.841 -227.463)"/>
        <path id="XMLID_302_" class="cls-2" d="M912.742,387.8v19.361L896,397.48Z" transform="translate(-385.778 -166.97)"/>
        <path id="XMLID_301_" class="cls-2" d="M905.465,790.3,879.1,805.451V775.1Z" transform="translate(-378.502 -333.724)"/>
        <path id="XMLID_300_" class="cls-2" d="M904.757,718.736,880.1,732.972V704.5Z" transform="translate(-378.932 -303.327)"/>
        <path id="XMLID_299_" class="cls-2" d="M913.574,176.3v13.5L901.9,183.019Z" transform="translate(-388.318 -75.907)"/>
        <path id="XMLID_298_" class="cls-2" d="M903.764,647.7l-22.664,13.1V634.6Z" transform="translate(-379.363 -273.231)"/>
        <path id="XMLID_297_" class="cls-2" d="M913.9,34.7v9.908l-8.6-4.954Z" transform="translate(-389.782 -14.94)"/>
        <path id="XMLID_296_" class="cls-2" d="M903.055,576.229,882.1,588.3V564.1Z" transform="translate(-379.793 -242.877)"/>
        <path id="XMLID_295_" class="cls-2" d="M900.987,361.768,885.1,370.936V352.6Z" transform="translate(-381.085 -151.814)"/>
        <path id="XMLID_294_" class="cls-2" d="M900.279,290.257l-14.179,8.2V282Z" transform="translate(-381.516 -121.417)"/>
        <path id="XMLID_293_" class="cls-2" d="M847.33,1058v37.185L815.1,1076.621Z" transform="translate(-350.946 -455.528)"/>
        <path id="XMLID_292_" class="cls-2" d="M847.476,986.6v36.217L816.1,1004.708Z" transform="translate(-351.377 -424.786)"/>
        <path id="XMLID_291_" class="cls-2" d="M845.685,1112.333H812.6V1093.2Z" transform="translate(-349.87 -470.684)"/>
        <path id="XMLID_290_" class="cls-2" d="M848.232,846.1v32.06l-27.732-16Z" transform="translate(-353.271 -364.293)"/>
        <path id="XMLID_289_" class="cls-2" d="M845.046,1040.85,813.1,1059.3v-36.9Z" transform="translate(-350.085 -440.2)"/>
        <path id="XMLID_288_" class="cls-2" d="M848.581,775.6v30.067L822.5,790.633Z" transform="translate(-354.132 -333.939)"/>
        <path id="XMLID_287_" class="cls-2" d="M844.679,968.953,814.1,986.605V951.3Z" transform="translate(-350.516 -409.588)"/>
        <path id="XMLID_286_" class="cls-2" d="M849.164,634.6v26.194L826.5,647.7Z" transform="translate(-355.854 -273.231)"/>
        <path id="XMLID_285_" class="cls-2" d="M843.971,897.485,815.1,914.112V880.8Z" transform="translate(-350.946 -379.234)"/>
        <path id="XMLID_284_" class="cls-2" d="M849.455,564.1v24.2L828.5,576.229Z" transform="translate(-356.716 -242.877)"/>
        <path id="XMLID_283_" class="cls-2" d="M849.7,493.6v22.265L830.4,504.7Z" transform="translate(-357.534 -212.522)"/>
        <path id="XMLID_282_" class="cls-2" d="M843.262,826.017,816.1,841.676V810.3Z" transform="translate(-351.377 -348.88)"/>
        <path id="XMLID_281_" class="cls-2" d="M849.78,422.5v20.671L831.9,432.807Z" transform="translate(-358.18 -181.91)"/>
        <path id="XMLID_280_" class="cls-2" d="M842.269,754.921,817.1,769.5V740.4Z" transform="translate(-351.807 -318.784)"/>
        <path id="XMLID_279_" class="cls-2" d="M850.828,211.5v14.464L838.3,218.732Z" transform="translate(-360.935 -91.063)"/>
        <path id="XMLID_278_" class="cls-2" d="M850.961,140.4v12.869L839.8,146.835Z" transform="translate(-361.581 -60.45)"/>
        <path id="XMLID_277_" class="cls-2" d="M851.468,70.5V81.092L842.3,75.8Z" transform="translate(-362.657 -30.354)"/>
        <path id="XMLID_276_" class="cls-2" d="M841.194,611.555,819.1,624.311V598.8Z" transform="translate(-352.668 -257.817)"/>
        <path id="XMLID_275_" class="cls-2" d="M840.443,540.087,820,551.875V528.3Z" transform="translate(-353.056 -227.463)"/>
        <path id="XMLID_274_" class="cls-2" d="M839.45,468.949,821,479.6V458.3Z" transform="translate(-353.487 -197.324)"/>
        <path id="XMLID_273_" class="cls-2" d="M839.026,397.051,822,406.9V387.2Z" transform="translate(-353.917 -166.711)"/>
        <path id="XMLID_272_" class="cls-2" d="M838.375,325.583,823,334.41V316.7Z" transform="translate(-354.348 -136.357)"/>
        <path id="XMLID_271_" class="cls-2" d="M784.685,1093.2v19.133H751.6Z" transform="translate(-323.606 -470.684)"/>
        <path id="XMLID_270_" class="cls-2" d="M785,1022.4v36.9l-32-18.45Z" transform="translate(-324.209 -440.2)"/>
        <path id="XMLID_269_" class="cls-2" d="M785.294,951.9v34.964L755,969.382Z" transform="translate(-325.07 -409.846)"/>
        <path id="XMLID_268_" class="cls-2" d="M785.371,880.8v33.312L756.5,897.485Z" transform="translate(-325.716 -379.234)"/>
        <path id="XMLID_267_" class="cls-2" d="M782.83,1076.621,750.6,1095.185V1058Z" transform="translate(-323.175 -455.528)"/>
        <path id="XMLID_266_" class="cls-2" d="M785.662,810.3v31.376L758.5,826.017Z" transform="translate(-326.577 -348.88)"/>
        <path id="XMLID_265_" class="cls-2" d="M782.476,1004.708,751.1,1022.817V986.6Z" transform="translate(-323.391 -424.786)"/>
        <path id="XMLID_264_" class="cls-2" d="M786.169,740.4v29.1L761,754.921Z" transform="translate(-327.653 -318.784)"/>
        <path id="XMLID_263_" class="cls-2" d="M786.418,669.9v27.105L762.9,683.453Z" transform="translate(-328.471 -288.43)"/>
        <path id="XMLID_262_" class="cls-2" d="M781.483,933.669,752.1,950.639V916.7Z" transform="translate(-323.821 -394.691)"/>
        <path id="XMLID_261_" class="cls-2" d="M786.494,598.8v25.511L764.4,611.555Z" transform="translate(-329.117 -257.817)"/>
        <path id="XMLID_260_" class="cls-2" d="M787.35,458.3v21.3L768.9,468.949Z" transform="translate(-331.055 -197.324)"/>
        <path id="XMLID_259_" class="cls-2" d="M779.657,718.736,755,732.972V704.5Z" transform="translate(-325.07 -303.327)"/>
        <path id="XMLID_258_" class="cls-2" d="M788.474,176.3v13.5L776.8,183.019Z" transform="translate(-334.456 -75.907)"/>
        <path id="XMLID_257_" class="cls-2" d="M788.765,105.8v11.5l-9.965-5.751Z" transform="translate(-335.317 -45.553)"/>
        <path id="XMLID_256_" class="cls-2" d="M788.8,34.7v9.908l-8.6-4.954Z" transform="translate(-335.92 -14.94)"/>
        <path id="XMLID_255_" class="cls-2" d="M777.589,504.275,758,515.607V493Z" transform="translate(-326.362 -212.264)"/>
        <path id="XMLID_254_" class="cls-2" d="M775.887,361.768,760,370.936V352.6Z" transform="translate(-327.223 -151.814)"/>
        <path id="XMLID_253_" class="cls-2" d="M775.179,290.257,761,298.457V282Z" transform="translate(-327.653 -121.417)"/>
        <path id="XMLID_252_" class="cls-2" d="M722.23,1058v37.185L690,1076.621Z" transform="translate(-297.084 -455.528)"/>
        <path id="XMLID_251_" class="cls-2" d="M722.376,986.6v36.217L691,1004.708Z" transform="translate(-297.514 -424.786)"/>
        <path id="XMLID_250_" class="cls-2" d="M720.585,1112.333H687.5V1093.2Z" transform="translate(-296.007 -470.684)"/>
        <path id="XMLID_249_" class="cls-2" d="M722.883,916.7v33.939L693.5,933.669Z" transform="translate(-298.591 -394.691)"/>
        <path id="XMLID_248_" class="cls-2" d="M723.232,846.1v32.06l-27.732-16Z" transform="translate(-299.452 -364.293)"/>
        <path id="XMLID_247_" class="cls-2" d="M720,1040.85l-32,18.45v-36.9Z" transform="translate(-296.223 -440.2)"/>
        <path id="XMLID_246_" class="cls-2" d="M723.481,775.6v30.067L697.4,790.633Z" transform="translate(-300.27 -333.939)"/>
        <path id="XMLID_245_" class="cls-2" d="M719.579,968.953,689,986.605V951.3Z" transform="translate(-296.653 -409.588)"/>
        <path id="XMLID_244_" class="cls-2" d="M724.064,634.6v26.194L701.4,647.7Z" transform="translate(-301.992 -273.231)"/>
        <path id="XMLID_243_" class="cls-2" d="M718.871,897.485,690,914.112V880.8Z" transform="translate(-297.084 -379.234)"/>
        <path id="XMLID_242_" class="cls-2" d="M724.355,564.1v24.2L703.4,576.229Z" transform="translate(-302.853 -242.877)"/>
        <path id="XMLID_241_" class="cls-2" d="M718.162,826.017,691,841.676V810.3Z" transform="translate(-297.514 -348.88)"/>
        <path id="XMLID_240_" class="cls-2" d="M724.68,422.5v20.671L706.8,432.807Z" transform="translate(-304.317 -181.91)"/>
        <path id="XMLID_239_" class="cls-2" d="M725.479,282v16.457l-14.179-8.2Z" transform="translate(-306.255 -121.417)"/>
        <path id="XMLID_238_" class="cls-2" d="M717.169,754.921,692,769.5V740.4Z" transform="translate(-297.945 -318.784)"/>
        <path id="XMLID_237_" class="cls-2" d="M725.728,211.5v14.464L713.2,218.732Z" transform="translate(-307.073 -91.063)"/>
        <path id="XMLID_236_" class="cls-2" d="M716.8,683.024,693,696.747V669.3Z" transform="translate(-298.375 -288.171)"/>
        <path id="XMLID_235_" class="cls-2" d="M726.368,70.5V81.092L717.2,75.8Z" transform="translate(-308.795 -30.354)"/>
        <path id="XMLID_234_" class="cls-2" d="M716.094,611.555,694,624.311V598.8Z" transform="translate(-298.806 -257.817)"/>
        <path id="XMLID_233_" class="cls-2" d="M726.66,0V8.6L719.2,4.328Z" transform="translate(-309.656)"/>
        <path id="XMLID_232_" class="cls-2" d="M715.386,540.087,695,551.875V528.3Z" transform="translate(-299.236 -227.463)"/>
        <path id="XMLID_231_" class="cls-2" d="M713.926,397.051,696.9,406.9V387.2Z" transform="translate(-300.054 -166.711)"/>
        <path id="XMLID_230_" class="cls-2" d="M712.567,254.115,698.9,261.974V246.2Z" transform="translate(-300.916 -106.003)"/>
        <path id="XMLID_229_" class="cls-2" d="M659.585,1093.2v19.133H626.5Z" transform="translate(-269.743 -470.684)"/>
        <path id="XMLID_228_" class="cls-2" d="M659.946,1022.4v36.9L628,1040.85Z" transform="translate(-270.389 -440.2)"/>
        <path id="XMLID_227_" class="cls-2" d="M660.194,951.9v34.964L629.9,969.382Z" transform="translate(-271.207 -409.846)"/>
        <path id="XMLID_226_" class="cls-2" d="M657.73,1076.621,625.5,1095.185V1058Z" transform="translate(-269.313 -455.528)"/>
        <path id="XMLID_225_" class="cls-2" d="M657.376,1004.708,626,1022.817V986.6Z" transform="translate(-269.528 -424.786)"/>
        <path id="XMLID_224_" class="cls-2" d="M661.069,740.4v29.1L635.9,754.921Z" transform="translate(-273.791 -318.784)"/>
        <path id="XMLID_223_" class="cls-2" d="M656.383,933.669,627,950.639V916.7Z" transform="translate(-269.959 -394.691)"/>
        <path id="XMLID_222_" class="cls-2" d="M661.743,528.3v23.575L641.3,540.087Z" transform="translate(-276.116 -227.463)"/>
        <path id="XMLID_221_" class="cls-2" d="M655.732,862.158,628,878.16V846.1Z" transform="translate(-270.389 -364.293)"/>
        <path id="XMLID_220_" class="cls-2" d="M662.25,458.3v21.3L643.8,468.949Z" transform="translate(-277.192 -197.324)"/>
        <path id="XMLID_219_" class="cls-2" d="M655.308,790.3,629,805.451V775.1Z" transform="translate(-270.82 -333.724)"/>
        <path id="XMLID_218_" class="cls-2" d="M662.575,316.7v17.71L647.2,325.583Z" transform="translate(-278.656 -136.357)"/>
        <path id="XMLID_217_" class="cls-2" d="M654.557,718.736,629.9,732.972V704.5Z" transform="translate(-271.207 -303.327)"/>
        <path id="XMLID_216_" class="cls-2" d="M663.374,176.3v13.5L651.7,183.019Z" transform="translate(-280.593 -75.907)"/>
        <path id="XMLID_215_" class="cls-2" d="M663.665,105.8v11.5l-9.965-5.751Z" transform="translate(-281.454 -45.553)"/>
        <path id="XMLID_214_" class="cls-2" d="M653.564,647.7l-22.664,13.1V634.6Z" transform="translate(-271.638 -273.231)"/>
        <path id="XMLID_213_" class="cls-2" d="M652.912,576.229,631.9,588.3V564.1Z" transform="translate(-272.068 -242.877)"/>
        <path id="XMLID_212_" class="cls-2" d="M652.489,504.275,632.9,515.607V493Z" transform="translate(-272.499 -212.264)"/>
        <path id="XMLID_211_" class="cls-2" d="M651.78,432.807,633.9,443.171V422.5Z" transform="translate(-272.929 -181.91)"/>
        <path id="XMLID_210_" class="cls-2" d="M650.787,361.768,634.9,370.936V352.6Z" transform="translate(-273.36 -151.814)"/>
        <path id="XMLID_209_" class="cls-2" d="M648.961,146.835,637.8,153.269V140.4Z" transform="translate(-274.609 -60.45)"/>
        <path id="XMLID_208_" class="cls-2" d="M597.131,1058v37.185L564.9,1076.621Z" transform="translate(-243.221 -455.528)"/>
        <path id="XMLID_207_" class="cls-2" d="M597.276,986.6v36.217L565.9,1004.708Z" transform="translate(-243.652 -424.786)"/>
        <path id="XMLID_206_" class="cls-2" d="M595.485,1112.333H562.4V1093.2Z" transform="translate(-242.145 -470.684)"/>
        <path id="XMLID_205_" class="cls-2" d="M598.089,846.1v32.06l-27.789-16Z" transform="translate(-245.546 -364.293)"/>
        <path id="XMLID_204_" class="cls-2" d="M594.9,1040.85l-32,18.45v-36.9Z" transform="translate(-242.36 -440.2)"/>
        <path id="XMLID_203_" class="cls-2" d="M598.38,775.6v30.067L572.3,790.633Z" transform="translate(-246.407 -333.939)"/>
        <path id="XMLID_202_" class="cls-2" d="M594.479,968.953,563.9,986.605V951.3Z" transform="translate(-242.791 -409.588)"/>
        <path id="XMLID_201_" class="cls-2" d="M598.457,704.5v28.472L573.8,718.736Z" transform="translate(-247.053 -303.327)"/>
        <path id="XMLID_200_" class="cls-2" d="M598.964,634.6v26.194L576.3,647.7Z" transform="translate(-248.129 -273.231)"/>
        <path id="XMLID_199_" class="cls-2" d="M593.771,897.485,564.9,914.112V880.8Z" transform="translate(-243.221 -379.234)"/>
        <path id="XMLID_198_" class="cls-2" d="M593.062,826.017,565.9,841.676V810.3Z" transform="translate(-243.652 -348.88)"/>
        <path id="XMLID_197_" class="cls-2" d="M600.087,352.6v18.336L584.2,361.768Z" transform="translate(-251.531 -151.814)"/>
        <path id="XMLID_196_" class="cls-2" d="M600.379,282v16.457l-14.179-8.2Z" transform="translate(-252.392 -121.417)"/>
        <path id="XMLID_195_" class="cls-2" d="M600.728,211.5v14.464L588.2,218.732Z" transform="translate(-253.253 -91.063)"/>
        <path id="XMLID_194_" class="cls-2" d="M591.7,683.024l-23.8,13.724V669.3Z" transform="translate(-244.513 -288.171)"/>
        <path id="XMLID_193_" class="cls-2" d="M601.268,70.5V81.092L592.1,75.8Z" transform="translate(-254.932 -30.354)"/>
        <path id="XMLID_192_" class="cls-2" d="M590.994,611.555,568.9,624.311V598.8Z" transform="translate(-244.943 -257.817)"/>
        <path id="XMLID_191_" class="cls-2" d="M589.25,468.949,570.8,479.6V458.3Z" transform="translate(-245.761 -197.324)"/>
        <path id="XMLID_190_" class="cls-2" d="M586.474,183.019,574.8,189.8V176.3Z" transform="translate(-247.484 -75.907)"/>
        <path id="XMLID_189_" class="cls-2" d="M534.485,1093.2v19.133H501.4Z" transform="translate(-215.881 -470.684)"/>
        <path id="XMLID_188_" class="cls-2" d="M534.846,1022.4v36.9L502.9,1040.85Z" transform="translate(-216.527 -440.2)"/>
        <path id="XMLID_187_" class="cls-2" d="M535.094,951.9v34.964L504.8,969.382Z" transform="translate(-217.345 -409.846)"/>
        <path id="XMLID_186_" class="cls-2" d="M535.171,880.8v33.312L506.3,897.485Z" transform="translate(-217.99 -379.234)"/>
        <path id="XMLID_185_" class="cls-2" d="M532.63,1076.621l-32.23,18.564V1058Z" transform="translate(-215.45 -455.528)"/>
        <path id="XMLID_184_" class="cls-2" d="M535.462,810.3v31.376L508.3,826.017Z" transform="translate(-218.852 -348.88)"/>
        <path id="XMLID_183_" class="cls-2" d="M532.276,1004.708,500.9,1022.817V986.6Z" transform="translate(-215.666 -424.786)"/>
        <path id="XMLID_182_" class="cls-2" d="M535.969,740.4v29.1L510.8,754.921Z" transform="translate(-219.928 -318.784)"/>
        <path id="XMLID_181_" class="cls-2" d="M536.261,669.9v27.105L512.8,683.453Z" transform="translate(-220.789 -288.43)"/>
        <path id="XMLID_180_" class="cls-2" d="M531.283,933.669,501.9,950.639V916.7Z" transform="translate(-216.096 -394.691)"/>
        <path id="XMLID_179_" class="cls-2" d="M536.294,598.8v25.511L514.2,611.555Z" transform="translate(-221.392 -257.817)"/>
        <path id="XMLID_178_" class="cls-2" d="M536.643,528.3v23.575L516.2,540.087Z" transform="translate(-222.253 -227.463)"/>
        <path id="XMLID_177_" class="cls-2" d="M530.632,862.158l-27.732,16V846.1Z" transform="translate(-216.527 -364.293)"/>
        <path id="XMLID_176_" class="cls-2" d="M537.442,387.8v19.361L520.7,397.48Z" transform="translate(-224.191 -166.97)"/>
        <path id="XMLID_175_" class="cls-2" d="M530.208,790.3,503.9,805.451V775.1Z" transform="translate(-216.957 -333.724)"/>
        <path id="XMLID_174_" class="cls-2" d="M537.475,316.7v17.71L522.1,325.583Z" transform="translate(-224.793 -136.357)"/>
        <path id="XMLID_173_" class="cls-2" d="M537.767,246.2v15.774L524.1,254.115Z" transform="translate(-225.654 -106.003)"/>
        <path id="XMLID_172_" class="cls-2" d="M529.457,718.736,504.8,732.972V704.5Z" transform="translate(-217.345 -303.327)"/>
        <path id="XMLID_171_" class="cls-2" d="M538.274,176.3v13.5L526.6,183.019Z" transform="translate(-226.731 -75.907)"/>
        <path id="XMLID_170_" class="cls-2" d="M538.565,105.8v11.5l-9.965-5.751Z" transform="translate(-227.592 -45.553)"/>
        <path id="XMLID_169_" class="cls-2" d="M527.812,576.229,506.8,588.3V564.1Z" transform="translate(-218.206 -242.877)"/>
        <path id="XMLID_168_" class="cls-2" d="M527.389,504.275,507.8,515.607V493Z" transform="translate(-218.636 -212.264)"/>
        <path id="XMLID_167_" class="cls-2" d="M526.681,432.807,508.8,443.171V422.5Z" transform="translate(-219.067 -181.91)"/>
        <path id="XMLID_166_" class="cls-2" d="M522.16,4.328,514.7,8.6V0Z" transform="translate(-221.607)"/>
        <path id="XMLID_165_" class="cls-2" d="M472.031,1058v37.185L439.8,1076.621Z" transform="translate(-189.359 -455.528)"/>
        <path id="XMLID_164_" class="cls-2" d="M472.176,986.6v36.217L440.8,1004.708Z" transform="translate(-189.789 -424.786)"/>
        <path id="XMLID_163_" class="cls-2" d="M470.385,1112.333H437.3V1093.2Z" transform="translate(-188.282 -470.684)"/>
        <path id="XMLID_162_" class="cls-2" d="M472.74,916.7v33.939l-29.44-16.97Z" transform="translate(-190.865 -394.691)"/>
        <path id="XMLID_161_" class="cls-2" d="M469.8,1040.85l-32,18.45v-36.9Z" transform="translate(-188.497 -440.2)"/>
        <path id="XMLID_160_" class="cls-2" d="M469.379,968.953,438.8,986.605V951.3Z" transform="translate(-188.928 -409.588)"/>
        <path id="XMLID_159_" class="cls-2" d="M473.357,704.5v28.472L448.7,718.736Z" transform="translate(-193.19 -303.327)"/>
        <path id="XMLID_158_" class="cls-2" d="M473.864,634.6v26.194L451.2,647.7Z" transform="translate(-194.267 -273.231)"/>
        <path id="XMLID_157_" class="cls-2" d="M468.671,897.485,439.8,914.112V880.8Z" transform="translate(-189.359 -379.234)"/>
        <path id="XMLID_156_" class="cls-2" d="M474.156,564.1v24.2L453.2,576.229Z" transform="translate(-195.128 -242.877)"/>
        <path id="XMLID_155_" class="cls-2" d="M467.962,826.017,440.8,841.676V810.3Z" transform="translate(-189.789 -348.88)"/>
        <path id="XMLID_154_" class="cls-2" d="M474.987,352.6v18.336L459.1,361.768Z" transform="translate(-197.668 -151.814)"/>
        <path id="XMLID_153_" class="cls-2" d="M466.969,754.921,441.8,769.5V740.4Z" transform="translate(-190.22 -318.784)"/>
        <path id="XMLID_152_" class="cls-2" d="M475.628,211.5v14.464L463.1,218.732Z" transform="translate(-199.39 -91.063)"/>
        <path id="XMLID_151_" class="cls-2" d="M475.661,140.4v12.869L464.5,146.835Z" transform="translate(-199.993 -60.45)"/>
        <path id="XMLID_150_" class="cls-2" d="M464.193,468.949,445.8,479.6V458.3Z" transform="translate(-191.942 -197.324)"/>
        <path id="XMLID_149_" class="cls-2" d="M463.726,397.051,446.7,406.9V387.2Z" transform="translate(-192.329 -166.711)"/>
        <path id="XMLID_148_" class="cls-2" d="M462.367,254.115,448.7,261.974V246.2Z" transform="translate(-193.19 -106.003)"/>
        <path id="XMLID_147_" class="cls-2" d="M460.3,39.654l-8.6,4.954V34.7Z" transform="translate(-194.482 -14.94)"/>
        <path id="XMLID_146_" class="cls-2" d="M409.385,1093.2v19.133H376.3Z" transform="translate(-162.018 -470.684)"/>
        <path id="XMLID_145_" class="cls-2" d="M409.746,1022.4v36.9L377.8,1040.85Z" transform="translate(-162.664 -440.2)"/>
        <path id="XMLID_144_" class="cls-2" d="M409.994,951.9v34.964L379.7,969.382Z" transform="translate(-163.482 -409.846)"/>
        <path id="XMLID_143_" class="cls-2" d="M410.071,880.8v33.312L381.2,897.485Z" transform="translate(-164.128 -379.234)"/>
        <path id="XMLID_142_" class="cls-2" d="M407.53,1076.621,375.3,1095.185V1058Z" transform="translate(-161.588 -455.528)"/>
        <path id="XMLID_141_" class="cls-2" d="M410.362,810.3v31.376L383.2,826.017Z" transform="translate(-164.989 -348.88)"/>
        <path id="XMLID_140_" class="cls-2" d="M407.176,1004.708,375.8,1022.817V986.6Z" transform="translate(-161.803 -424.786)"/>
        <path id="XMLID_139_" class="cls-2" d="M410.869,740.4v29.1L385.7,754.921Z" transform="translate(-166.065 -318.784)"/>
        <path id="XMLID_138_" class="cls-2" d="M411.118,669.9v27.105L387.6,683.453Z" transform="translate(-166.883 -288.43)"/>
        <path id="XMLID_137_" class="cls-2" d="M406.183,933.669,376.8,950.639V916.7Z" transform="translate(-162.233 -394.691)"/>
        <path id="XMLID_136_" class="cls-2" d="M411.251,598.8v25.511L389.1,611.555Z" transform="translate(-167.529 -257.817)"/>
        <path id="XMLID_135_" class="cls-2" d="M411.543,528.3v23.575L391.1,540.087Z" transform="translate(-168.39 -227.463)"/>
        <path id="XMLID_134_" class="cls-2" d="M405.532,862.158l-27.732,16V846.1Z" transform="translate(-162.664 -364.293)"/>
        <path id="XMLID_133_" class="cls-2" d="M412.375,316.7v17.71L397,325.583Z" transform="translate(-170.931 -136.357)"/>
        <path id="XMLID_132_" class="cls-2" d="M413.174,176.3v13.5L401.5,183.019Z" transform="translate(-172.868 -75.907)"/>
        <path id="XMLID_131_" class="cls-2" d="M413.465,105.8v11.5l-9.965-5.751Z" transform="translate(-173.729 -45.553)"/>
        <path id="XMLID_130_" class="cls-2" d="M403.364,647.7l-22.664,13.1V634.6Z" transform="translate(-163.913 -273.231)"/>
        <path id="XMLID_129_" class="cls-2" d="M402.289,504.275,382.7,515.607V493Z" transform="translate(-164.774 -212.264)"/>
        <path id="XMLID_128_" class="cls-2" d="M401.581,432.807,383.7,443.171V422.5Z" transform="translate(-165.204 -181.91)"/>
        <path id="XMLID_127_" class="cls-2" d="M399.879,290.257l-14.179,8.2V282Z" transform="translate(-166.065 -121.417)"/>
        <path id="XMLID_126_" class="cls-2" d="M397.06,4.328,389.6,8.6V0Z" transform="translate(-167.745)"/>
        <path id="XMLID_125_" class="cls-2" d="M346.93,1058v37.185l-32.23-18.564Z" transform="translate(-135.496 -455.528)"/>
        <path id="XMLID_124_" class="cls-2" d="M347.076,986.6v36.217L315.7,1004.708Z" transform="translate(-135.927 -424.786)"/>
        <path id="XMLID_123_" class="cls-2" d="M345.285,1112.333H312.2V1093.2Z" transform="translate(-134.42 -470.684)"/>
        <path id="XMLID_122_" class="cls-2" d="M347.64,916.7v33.939l-29.44-16.97Z" transform="translate(-137.003 -394.691)"/>
        <path id="XMLID_121_" class="cls-2" d="M347.932,846.1v32.06l-27.732-16Z" transform="translate(-137.864 -364.293)"/>
        <path id="XMLID_120_" class="cls-2" d="M344.7,1040.85l-32,18.45v-36.9Z" transform="translate(-134.635 -440.2)"/>
        <path id="XMLID_119_" class="cls-2" d="M348.18,775.6v30.067L322.1,790.633Z" transform="translate(-138.682 -333.939)"/>
        <path id="XMLID_118_" class="cls-2" d="M344.279,968.953,313.7,986.605V951.3Z" transform="translate(-135.065 -409.588)"/>
        <path id="XMLID_117_" class="cls-2" d="M348.257,704.5v28.472L323.6,718.736Z" transform="translate(-139.328 -303.327)"/>
        <path id="XMLID_116_" class="cls-2" d="M348.764,634.6v26.194L326.1,647.7Z" transform="translate(-140.404 -273.231)"/>
        <path id="XMLID_115_" class="cls-2" d="M343.571,897.485,314.7,914.112V880.8Z" transform="translate(-135.496 -379.234)"/>
        <path id="XMLID_114_" class="cls-2" d="M349.055,564.1v24.2L328.1,576.229Z" transform="translate(-141.265 -242.877)"/>
        <path id="XMLID_113_" class="cls-2" d="M349.3,493.6v22.265L330,504.7Z" transform="translate(-142.083 -212.522)"/>
        <path id="XMLID_112_" class="cls-2" d="M349.887,352.6v18.336L334,361.768Z" transform="translate(-143.806 -151.814)"/>
        <path id="XMLID_111_" class="cls-2" d="M341.926,754.921,316.7,769.5V740.4Z" transform="translate(-136.357 -318.784)"/>
        <path id="XMLID_110_" class="cls-2" d="M350.528,211.5v14.464L338,218.732Z" transform="translate(-145.528 -91.063)"/>
        <path id="XMLID_109_" class="cls-2" d="M341.5,683.024l-23.8,13.724V669.3Z" transform="translate(-136.788 -288.171)"/>
        <path id="XMLID_108_" class="cls-2" d="M351.068,70.5V81.092L341.9,75.8Z" transform="translate(-147.207 -30.354)"/>
        <path id="XMLID_107_" class="cls-2" d="M340.794,611.555,318.7,624.311V598.8Z" transform="translate(-137.218 -257.817)"/>
        <path id="XMLID_106_" class="cls-2" d="M338.626,397.051,321.6,406.9V387.2Z" transform="translate(-138.467 -166.711)"/>
        <path id="XMLID_105_" class="cls-2" d="M337.975,325.583,322.6,334.41V316.7Z" transform="translate(-138.897 -136.357)"/>
        <path id="XMLID_104_" class="cls-2" d="M337.267,254.115,323.6,261.974V246.2Z" transform="translate(-139.328 -106.003)"/>
        <path id="XMLID_103_" class="cls-2" d="M335.2,39.654l-8.6,4.954V34.7Z" transform="translate(-140.62 -14.94)"/>
        <path id="XMLID_102_" class="cls-2" d="M284.285,1093.2v19.133H251.2Z" transform="translate(-108.156 -470.684)"/>
        <path id="XMLID_101_" class="cls-2" d="M284.646,1022.4v36.9L252.7,1040.85Z" transform="translate(-108.801 -440.2)"/>
        <path id="XMLID_100_" class="cls-2" d="M284.894,951.9v34.964L254.6,969.382Z" transform="translate(-109.62 -409.846)"/>
        <path id="XMLID_99_" class="cls-2" d="M282.43,1076.621l-32.23,18.564V1058Z" transform="translate(-107.725 -455.528)"/>
        <path id="XMLID_98_" class="cls-2" d="M285.262,810.3v31.376L258.1,826.017Z" transform="translate(-111.126 -348.88)"/>
        <path id="XMLID_97_" class="cls-2" d="M282.076,1004.708,250.7,1022.817V986.6Z" transform="translate(-107.94 -424.786)"/>
        <path id="XMLID_96_" class="cls-2" d="M285.769,740.4v29.1L260.6,754.921Z" transform="translate(-112.203 -318.784)"/>
        <path id="XMLID_95_" class="cls-2" d="M281.14,933.669l-29.44,16.97V916.7Z" transform="translate(-108.371 -394.691)"/>
        <path id="XMLID_94_" class="cls-2" d="M286.443,528.3v23.575L266,540.087Z" transform="translate(-114.528 -227.463)"/>
        <path id="XMLID_93_" class="cls-2" d="M280.432,862.158l-27.732,16V846.1Z" transform="translate(-108.801 -364.293)"/>
        <path id="XMLID_92_" class="cls-2" d="M286.95,458.3v21.3L268.5,468.949Z" transform="translate(-115.604 -197.324)"/>
        <path id="XMLID_91_" class="cls-2" d="M287.242,387.8v19.361L270.5,397.48Z" transform="translate(-116.465 -166.97)"/>
        <path id="XMLID_90_" class="cls-2" d="M280.008,790.3,253.7,805.451V775.1Z" transform="translate(-109.232 -333.724)"/>
        <path id="XMLID_89_" class="cls-2" d="M279.257,718.736,254.6,732.972V704.5Z" transform="translate(-109.62 -303.327)"/>
        <path id="XMLID_88_" class="cls-2" d="M288.074,176.3v13.5L276.4,183.019Z" transform="translate(-119.006 -75.907)"/>
        <path id="XMLID_87_" class="cls-2" d="M277.612,576.229,256.6,588.3V564.1Z" transform="translate(-110.481 -242.877)"/>
        <path id="XMLID_86_" class="cls-2" d="M276.481,432.807,258.6,443.171V422.5Z" transform="translate(-111.342 -181.91)"/>
        <path id="XMLID_85_" class="cls-2" d="M273.7,146.835l-11.1,6.435V140.4Z" transform="translate(-113.064 -60.45)"/>
        <path id="XMLID_84_" class="cls-2" d="M271.96,4.328,264.5,8.6V0Z" transform="translate(-113.882)"/>
        <path id="XMLID_83_" class="cls-2" d="M221.831,1058v37.185L189.6,1076.621Z" transform="translate(-81.633 -455.528)"/>
        <path id="XMLID_82_" class="cls-2" d="M221.976,986.6v36.217L190.6,1004.708Z" transform="translate(-82.064 -424.786)"/>
        <path id="XMLID_81_" class="cls-2" d="M220.185,1112.333H187.1V1093.2Z" transform="translate(-80.557 -470.684)"/>
        <path id="XMLID_80_" class="cls-2" d="M222.54,916.7v33.939l-29.44-16.97Z" transform="translate(-83.14 -394.691)"/>
        <path id="XMLID_79_" class="cls-2" d="M219.6,1040.85l-32,18.45v-36.9Z" transform="translate(-80.772 -440.2)"/>
        <path id="XMLID_78_" class="cls-2" d="M223.081,775.6v30.067L197,790.633Z" transform="translate(-84.82 -333.939)"/>
        <path id="XMLID_77_" class="cls-2" d="M219.179,968.953,188.6,986.605V951.3Z" transform="translate(-81.203 -409.588)"/>
        <path id="XMLID_76_" class="cls-2" d="M223.664,634.6v26.194L201,647.7Z" transform="translate(-86.542 -273.231)"/>
        <path id="XMLID_75_" class="cls-2" d="M218.471,897.485,189.6,914.112V880.8Z" transform="translate(-81.633 -379.234)"/>
        <path id="XMLID_74_" class="cls-2" d="M224.2,493.6v22.265L204.9,504.7Z" transform="translate(-88.221 -212.522)"/>
        <path id="XMLID_73_" class="cls-2" d="M217.762,826.017,190.6,841.676V810.3Z" transform="translate(-82.064 -348.88)"/>
        <path id="XMLID_72_" class="cls-2" d="M224.787,352.6v18.336L208.9,361.768Z" transform="translate(-89.943 -151.814)"/>
        <path id="XMLID_71_" class="cls-2" d="M225.136,282v16.457l-14.236-8.2Z" transform="translate(-90.804 -121.417)"/>
        <path id="XMLID_70_" class="cls-2" d="M225.428,211.5v14.464L212.9,218.732Z" transform="translate(-91.665 -91.063)"/>
        <path id="XMLID_69_" class="cls-2" d="M216.4,683.024l-23.8,13.724V669.3Z" transform="translate(-82.925 -288.171)"/>
        <path id="XMLID_68_" class="cls-2" d="M215.694,611.555,193.6,624.311V598.8Z" transform="translate(-83.356 -257.817)"/>
        <path id="XMLID_67_" class="cls-2" d="M214.986,540.087,194.6,551.875V528.3Z" transform="translate(-83.786 -227.463)"/>
        <path id="XMLID_66_" class="cls-2" d="M213.993,468.949,195.6,479.6V458.3Z" transform="translate(-84.217 -197.324)"/>
        <path id="XMLID_65_" class="cls-2" d="M210.807,111.122,200.5,117.044V105.2Z" transform="translate(-86.326 -45.294)"/>
        <path id="XMLID_64_" class="cls-2" d="M159.185,1093.2v19.133H126.1Z" transform="translate(-54.293 -470.684)"/>
        <path id="XMLID_63_" class="cls-2" d="M159.546,1022.4v36.9L127.6,1040.85Z" transform="translate(-54.939 -440.2)"/>
        <path id="XMLID_62_" class="cls-2" d="M159.837,951.9v34.964L129.6,969.382Z" transform="translate(-55.8 -409.846)"/>
        <path id="XMLID_61_" class="cls-2" d="M159.871,880.8v33.312L131,897.485Z" transform="translate(-56.403 -379.234)"/>
        <path id="XMLID_60_" class="cls-2" d="M157.331,1076.621,125.1,1095.185V1058Z" transform="translate(-53.863 -455.528)"/>
        <path id="XMLID_59_" class="cls-2" d="M160.162,810.3v31.376L133,826.017Z" transform="translate(-57.264 -348.88)"/>
        <path id="XMLID_58_" class="cls-2" d="M156.976,1004.708,125.6,1022.817V986.6Z" transform="translate(-54.078 -424.786)"/>
        <path id="XMLID_57_" class="cls-2" d="M160.669,740.4v29.1L135.5,754.921Z" transform="translate(-58.34 -318.784)"/>
        <path id="XMLID_56_" class="cls-2" d="M160.961,669.9v27.105L137.5,683.453Z" transform="translate(-59.201 -288.43)"/>
        <path id="XMLID_55_" class="cls-2" d="M155.983,933.669,126.6,950.639V916.7Z" transform="translate(-54.508 -394.691)"/>
        <path id="XMLID_54_" class="cls-2" d="M161.051,598.8v25.511L138.9,611.555Z" transform="translate(-59.804 -257.817)"/>
        <path id="XMLID_53_" class="cls-2" d="M155.332,862.158l-27.732,16V846.1Z" transform="translate(-54.939 -364.293)"/>
        <path id="XMLID_52_" class="cls-2" d="M162.218,316.7v17.71L146.9,325.583Z" transform="translate(-63.249 -136.357)"/>
        <path id="XMLID_51_" class="cls-2" d="M162.467,246.2v15.774L148.8,254.115Z" transform="translate(-64.067 -106.003)"/>
        <path id="XMLID_50_" class="cls-2" d="M154.2,718.736l-24.6,14.236V704.5Z" transform="translate(-55.8 -303.327)"/>
        <path id="XMLID_49_" class="cls-2" d="M163.342,34.7v9.908L154.8,39.654Z" transform="translate(-66.65 -14.94)"/>
        <path id="XMLID_48_" class="cls-2" d="M152.512,576.229,131.5,588.3V564.1Z" transform="translate(-56.618 -242.877)"/>
        <path id="XMLID_47_" class="cls-2" d="M151.381,432.807,133.5,443.171V422.5Z" transform="translate(-57.479 -181.91)"/>
        <path id="XMLID_46_" class="cls-2" d="M150.387,361.768,134.5,370.936V352.6Z" transform="translate(-57.91 -151.814)"/>
        <path id="XMLID_45_" class="cls-2" d="M148.6,146.835l-11.1,6.435V140.4Z" transform="translate(-59.201 -60.45)"/>
        <path id="XMLID_44_" class="cls-2" d="M147.568,75.8l-9.168,5.3V70.5Z" transform="translate(-59.589 -30.354)"/>
        <path id="XMLID_43_" class="cls-2" d="M96.731,1058v37.185L64.5,1076.621Z" transform="translate(-27.771 -455.528)"/>
        <path id="XMLID_42_" class="cls-2" d="M96.933,986.6v36.217L65.5,1004.708Z" transform="translate(-28.201 -424.786)"/>
        <path id="XMLID_41_" class="cls-2" d="M95.142,1112.333H62V1093.2Z" transform="translate(-26.694 -470.684)"/>
        <path id="XMLID_40_" class="cls-2" d="M97.44,916.7v33.939L68,933.669Z" transform="translate(-29.278 -394.691)"/>
        <path id="XMLID_39_" class="cls-2" d="M97.732,846.1v32.06L70,862.158Z" transform="translate(-30.139 -364.293)"/>
        <path id="XMLID_38_" class="cls-2" d="M94.5,1040.85l-32,18.45v-36.9Z" transform="translate(-26.91 -440.2)"/>
        <path id="XMLID_37_" class="cls-2" d="M97.981,775.6v30.067L71.9,790.633Z" transform="translate(-30.957 -333.939)"/>
        <path id="XMLID_36_" class="cls-2" d="M94.079,968.953,63.5,986.605V951.3Z" transform="translate(-27.34 -409.588)"/>
        <path id="XMLID_35_" class="cls-2" d="M98.564,634.6v26.194L75.9,647.7Z" transform="translate(-32.679 -273.231)"/>
        <path id="XMLID_34_" class="cls-2" d="M99.147,493.6v22.265L79.9,504.7Z" transform="translate(-34.401 -212.522)"/>
        <path id="XMLID_33_" class="cls-2" d="M100.036,282v16.457l-14.236-8.2Z" transform="translate(-36.942 -121.417)"/>
        <path id="XMLID_32_" class="cls-2" d="M91.726,754.921,66.5,769.5V740.4Z" transform="translate(-28.632 -318.784)"/>
        <path id="XMLID_31_" class="cls-2" d="M100.328,211.5v14.464L87.8,218.732Z" transform="translate(-37.803 -91.063)"/>
        <path id="XMLID_30_" class="cls-2" d="M91.3,683.024,67.5,696.747V669.3Z" transform="translate(-29.063 -288.171)"/>
        <path id="XMLID_29_" class="cls-2" d="M101.16,0V8.6L93.7,4.328Z" transform="translate(-40.343)"/>
        <path id="XMLID_27_" class="cls-2" d="M89.886,540.087,69.5,551.875V528.3Z" transform="translate(-29.924 -227.463)"/>
        <path id="XMLID_26_" class="cls-2" d="M88.483,397.051,71.4,406.9V387.2Z" transform="translate(-30.742 -166.711)"/>
        <path id="XMLID_25_" class="cls-2" d="M85.65,111.122,75.4,117.044V105.2Z" transform="translate(-32.464 -45.294)"/>
        <path id="XMLID_24_" class="cls-2" d="M34.085,1093.2v19.133H1Z" transform="translate(-0.431 -470.684)"/>
        <path id="XMLID_23_" class="cls-2" d="M34.446,1022.4v36.9L2.5,1040.85Z" transform="translate(-1.076 -440.2)"/>
        <path id="XMLID_22_" class="cls-2" d="M34.694,951.9v34.964L4.4,969.382Z" transform="translate(-1.894 -409.846)"/>
        <path id="XMLID_21_" class="cls-2" d="M34.771,880.8v33.312L5.9,897.485Z" transform="translate(-2.54 -379.234)"/>
        <path id="XMLID_20_" class="cls-2" d="M32.231,1076.621,0,1095.185V1058Z" transform="translate(0 -455.528)"/>
        <path id="XMLID_19_" class="cls-2" d="M35.062,810.3v31.376L7.9,826.017Z" transform="translate(-3.401 -348.88)"/>
        <path id="XMLID_18_" class="cls-2" d="M31.876,1004.708.5,1022.817V986.6Z" transform="translate(-0.215 -424.786)"/>
        <path id="XMLID_17_" class="cls-2" d="M35.994,598.8v25.511L13.9,611.555Z" transform="translate(-5.985 -257.817)"/>
        <path id="XMLID_16_" class="cls-2" d="M36.243,528.3v23.575L15.8,540.087Z" transform="translate(-6.803 -227.463)"/>
        <path id="XMLID_15_" class="cls-2" d="M30.232,862.158,2.5,878.16V846.1Z" transform="translate(-1.076 -364.293)"/>
        <path id="XMLID_14_" class="cls-2" d="M36.75,458.3v21.3L18.3,468.949Z" transform="translate(-7.879 -197.324)"/>
        <path id="XMLID_13_" class="cls-2" d="M29.808,790.3,3.5,805.451V775.1Z" transform="translate(-1.507 -333.724)"/>
        <path id="XMLID_12_" class="cls-2" d="M37.118,316.7v17.71L21.8,325.583Z" transform="translate(-9.386 -136.357)"/>
        <path id="XMLID_11_" class="cls-2" d="M37.367,246.2v15.774L23.7,254.115Z" transform="translate(-10.204 -106.003)"/>
        <path id="XMLID_10_" class="cls-2" d="M29.057,718.736,4.4,732.972V704.5Z" transform="translate(-1.894 -303.327)"/>
        <path id="XMLID_9_" class="cls-2" d="M26.281,432.807,8.4,443.171V422.5Z" transform="translate(-3.617 -181.91)"/>
        <path id="XMLID_8_" class="cls-2" d="M24.579,290.257l-14.179,8.2V282Z" transform="translate(-4.478 -121.417)"/>
        <path id="XMLID_7_" class="cls-2" d="M23.5,146.835l-11.1,6.435V140.4Z" transform="translate(-5.339 -60.45)"/>
        <path id="XMLID_6_" class="cls-2" d="M22.511,75.8l-9.111,5.3V70.5Z" transform="translate(-5.769 -30.354)"/>
      </g>
    </g>
  </g>
</svg>
